<?xml version="1.0" encoding="UTF-8" standalone="no"?><!-- Generator: Gravit.io --><svg xmlns="http://www.w3.org/2000/svg" xmlns:xlink="http://www.w3.org/1999/xlink" style="isolation:isolate" viewBox="0 0 559.133 590.64" width="559.133pt" height="590.64pt"><defs><clipPath id="_clipPath_LMDqtZq5HHMEcaXVabBN3FH5XK2auJED"><rect width="559.133" height="590.64"/></clipPath></defs><g clip-path="url(#_clipPath_LMDqtZq5HHMEcaXVabBN3FH5XK2auJED)"><clipPath id="_clipPath_EPHjZMGarJnsLlRCNSgSrl1JdLNaoKyJ"><rect x="0" y="0" width="559.133" height="590.64" transform="matrix(1,0,0,1,0,0)" fill="rgb(255,255,255)"/></clipPath><g clip-path="url(#_clipPath_EPHjZMGarJnsLlRCNSgSrl1JdLNaoKyJ)"><g><clipPath id="_clipPath_u8ny0Btkzw6o89h0zxlGYtmz5e9AQpXL"><rect x="0" y="0" width="559.133" height="590.64" transform="matrix(1,0,0,1,0,0)" fill="rgb(255,255,255)"/></clipPath><g clip-path="url(#_clipPath_u8ny0Btkzw6o89h0zxlGYtmz5e9AQpXL)"><g><g><g><path d=" M 293.095 175.252 L 357.305 175.252 L 355.811 167.888 L 291.605 167.888 L 293.095 175.252 L 293.095 175.252 L 293.095 175.252 Z " fill="rgb(107,102,255)"/><path d=" M 282.256 121.873 L 346.464 121.873 L 344.967 114.512 L 280.757 114.512 L 282.256 121.873 L 282.256 121.873 Z " fill="rgb(108,98,183)"/><path d=" M 303.941 228.625 L 368.149 228.625 L 366.652 221.263 L 302.444 221.263 L 303.941 228.625 L 303.941 228.625 L 303.941 228.625 Z " fill="rgb(108,98,183)"/><path d=" M 314.784 282.001 L 378.991 282.001 L 377.496 274.64 L 313.289 274.64 L 314.784 282.001 L 314.784 282.001 L 314.784 282.001 Z " fill="rgb(186,161,166)"/><path d=" M 325.625 335.377 L 389.833 335.377 L 388.339 328.017 L 324.131 328.017 L 325.625 335.377 L 325.625 335.377 L 325.625 335.377 Z " fill="rgb(186,161,166)"/><path d=" M 336.469 388.756 L 400.675 388.756 L 399.183 381.393 L 334.977 381.393 L 336.469 388.756 L 336.469 388.756 L 336.469 388.756 Z " fill="rgb(186,161,166)"/><path d=" M 347.313 442.131 L 411.519 442.131 L 410.024 434.767 L 345.816 434.767 L 347.313 442.131 L 347.313 442.131 L 347.313 442.131 Z " fill="rgb(186,161,166)"/><path d=" M 358.155 495.508 L 422.363 495.508 L 420.868 488.143 L 356.66 488.143 L 358.155 495.508 L 358.155 495.508 L 358.155 495.508 Z " fill="rgb(186,161,166)"/><path d=" M 415.969 512.776 L 433.269 512.776 L 349.253 99.211 L 331.959 99.211 L 415.969 512.776 L 415.969 512.776 L 415.969 512.776 Z " fill="rgb(159,144,148)"/><path d=" M 357.423 515.776 L 374.72 515.776 L 290.707 102.211 L 273.412 102.211 L 357.423 515.776 L 357.423 515.776 L 357.423 515.776 Z " fill="rgb(159,144,148)"/><path d=" M 205.449 515.776 L 188.153 515.776 L 272.168 102.211 L 289.467 102.211 L 205.449 515.776 L 205.449 515.776 L 205.449 515.776 Z " fill="rgb(186,161,166)"/><path d=" M 328.327 175.252 L 264.119 175.252 L 265.612 167.888 L 329.819 167.888 L 328.327 175.252 L 328.327 175.252 L 328.327 175.252 Z " fill="rgb(135,129,200)"/><path d=" M 339.167 121.873 L 274.957 121.873 L 276.453 114.512 L 340.663 114.512 L 339.167 121.873 L 339.167 121.873 L 339.167 121.873 Z " fill="rgb(186,161,166)"/><path d=" M 317.48 228.625 L 253.272 228.625 L 254.769 221.263 L 318.977 221.263 L 317.48 228.625 L 317.48 228.625 L 317.48 228.625 Z " fill="rgb(135,129,200)"/><path d=" M 306.636 282.001 L 242.429 282.001 L 243.927 274.64 L 308.131 274.64 L 306.636 282.001 L 306.636 282.001 L 306.636 282.001 Z " fill="rgb(135,129,200)"/><path d=" M 295.795 335.377 L 231.585 335.377 L 233.083 328.017 L 297.295 328.017 L 295.795 335.377 L 295.795 335.377 L 295.795 335.377 Z " fill="rgb(135,129,200)"/><path d=" M 284.951 388.756 L 220.743 388.756 L 222.24 381.393 L 286.448 381.393 L 284.951 388.756 L 284.951 388.756 L 284.951 388.756 Z " fill="rgb(159,144,148)"/><path d=" M 274.109 442.131 L 209.899 442.131 L 211.399 434.767 L 275.607 434.767 L 274.109 442.131 L 274.109 442.131 L 274.109 442.131 Z " fill="rgb(159,144,148)"/><path d=" M 263.268 495.508 L 199.059 495.508 L 200.553 488.143 L 264.763 488.143 L 263.268 495.508 L 263.268 495.508 L 263.268 495.508 Z " fill="rgb(159,144,148)"/><path d=" M 264 515.776 L 246.7 515.776 L 330.715 102.211 L 348.011 102.211 L 264 515.776 L 264 515.776 L 264 515.776 Z " fill="rgb(186,161,166)"/><path d=" M 272.04 125.604 C 261.048 129.844 246.396 129.563 234.243 126.452 C 234.297 125.563 234.343 124.668 234.372 123.777 C 246.661 126.301 259.961 124.107 271.135 121.88 C 271.396 123.132 271.7 124.373 272.04 125.604 Z " fill="rgb(20,39,51)"/><path d=" M 271.969 125.801 C 273.816 129.645 276.121 133.423 278.257 137.283 C 283.617 146.965 285.779 187.309 283.196 199.299 C 280.623 211.241 213.76 214.047 220.557 187.264 C 222.457 179.78 232.187 129.413 234.077 126.46 C 246.927 129.172 259.181 128.804 271.969 125.801 Z " fill="rgb(25,25,31)"/><path d=" M 159.619 130.956 C 160.06 129.607 160.763 128.168 161.385 126.916 C 160.043 126.924 158.528 128.183 157.088 127.925 C 156.987 125.867 158.507 123.713 160.193 122.535 L 173.192 125.593 C 171.224 125.964 168.987 126.869 167.383 127.864 C 166.943 128.313 165.248 129.936 164.985 130.023 C 163.373 130.124 163.185 128.695 164.428 127.075" fill="rgb(247,144,111)"/><path d=" M 185.392 121.099 C 176.045 122.189 154.596 120.432 156.303 122.311 C 159.861 125.616 164.852 123.409 173.723 126.768 C 171.451 129.276 164.335 130.412 166.747 131.597 C 169.455 132.416 174.643 130.303 178.384 130.077 C 182.323 129.428 185.851 128.579 189.587 128.347 L 189.74 128.324 C 188.979 125.785 188.037 123.293 186.864 120.859 C 186.353 120.953 185.855 121.037 185.392 121.099 Z " fill="rgb(251,196,179)"/><path d=" M 229.824 80.693 C 225.243 89.999 220.507 103.091 213.687 111.719 C 208.351 115.157 195.683 120.317 188.501 121.643 C 189.472 123.655 190.249 125.717 190.877 127.815 C 198.3 126.729 213.167 124.043 219.353 119.657 C 225.197 115.511 234.672 96.555 238.048 85.364 L 229.824 80.693 L 229.824 80.693 L 229.824 80.693 Z " fill="rgb(251,196,179)"/><path d=" M 239.573 73.075 C 235.213 73.1 231.664 73.825 227.467 82.272 L 227.453 82.275 C 227.453 82.275 215.072 107.525 212.697 110.577 L 182.883 120.736 C 182.883 120.736 187.512 125.871 185.899 129.579 C 185.899 129.579 215.447 125.304 221.225 120.096 C 225.056 116.643 228.661 107.613 230.655 101.92 C 231.087 102.465 231.519 102.96 231.961 103.395 C 233.996 99.257 237.725 79.445 237.692 74.292 L 239.573 73.075 L 239.573 73.075 Z " fill="rgb(3,143,174)"/><path d=" M 273.544 20.057 C 274.635 23.201 275.405 26.476 275.951 29.752 C 276.585 33.575 277.26 37.433 276.377 41.28 C 275.225 46.291 271.167 51.031 267.344 54.145 C 258.383 61.445 245.085 64.416 233.872 61.647 C 228.145 60.231 222.448 56.892 218.871 52.103 C 215.009 46.936 215.708 39.225 216.047 33.212 C 216.352 27.825 217.648 21.361 219.247 16.184 C 220.371 12.536 222.051 9.132 225.127 6.749 C 228.832 3.877 233.123 2.957 237.524 1.676 C 239.381 1.137 241.391 0.692 243.471 0.397 C 250.581 -0.611 258.485 0.143 263.768 4.793 C 268.467 8.928 271.54 14.276 273.544 20.057 Z " fill="rgb(112,38,44)"/><path d=" M 264.957 33.588 C 264.963 33.037 261.632 32.109 261.181 31.936 C 259.407 31.272 257.693 30.515 256.032 29.607 C 251.511 27.137 247.559 23.816 243.785 20.341 C 242.024 18.719 240.664 16.979 239.759 14.753 C 239.168 16.14 240.189 18.172 240.131 19.669 C 238.445 18.369 236.201 17.179 235.545 14.904 C 235.277 13.984 234.836 11.632 235.541 10.767 C 233 11.264 230.636 14.025 229.361 16.115 C 226.584 20.665 224.196 27.36 224.249 32.725 C 224.293 37.113 225.164 41.46 225.091 45.855 C 225.003 51.08 226.657 57.767 231.731 60.711 C 234.384 62.292 239.911 63.711 240.808 63.908 C 241.743 64.116 242.599 69.556 241.953 71.949 C 241.113 75.773 235.704 78.924 235.095 79.993 C 232.837 83.9 240.561 88.619 243.929 90.181 C 252.653 94.231 269.041 88.376 259.06 79.131 C 257.045 77.263 253.429 74.309 252.419 70.725 C 251.891 68.835 250.171 62.932 251.465 61.525 C 251.913 61.033 251.913 61.033 255.633 57.744 C 260.116 53.784 262.627 48.749 262.627 48.749 C 264.011 48.711 267.171 48.841 268.893 46.151 C 272.053 41.225 270.692 38.487 264.533 38.9 L 264.957 33.588 L 264.957 33.588 Z " fill="rgb(252,212,203)"/><path d=" M 254.203 44.919 C 252.056 44.559 249.028 46.205 250.821 47.729 C 252.017 48.741 255.239 48.749 255.921 47.08 C 256.369 45.997 255.169 45.079 254.203 44.919 Z " fill="rgb(249,170,181)"/><path d=" M 228.736 45.385 C 229.431 45.347 230.075 45.48 230.361 45.82 C 231.013 46.592 230.369 47.7 229.617 48.103 C 228.684 48.609 226.196 48.188 226.356 46.721 C 226.444 45.935 227.645 45.44 228.736 45.385 Z " fill="rgb(249,170,181)"/><path d=" M 232.816 41.376 C 232.84 42.225 232.168 42.94 231.317 42.965 C 230.459 42.988 229.749 42.319 229.724 41.461 C 229.701 40.609 230.375 39.9 231.228 39.873 C 232.079 39.849 232.791 40.523 232.816 41.376 Z " fill="rgb(21,19,17)"/><path d=" M 250.953 40.852 C 250.977 41.705 250.309 42.416 249.455 42.444 C 248.597 42.471 247.888 41.795 247.864 40.943 C 247.84 40.091 248.512 39.377 249.361 39.348 C 250.221 39.329 250.931 40.001 250.953 40.852 Z " fill="rgb(21,19,17)"/><path d=" M 238.472 71.872 C 229.68 73.472 230.164 75.7 229.439 84.256 C 229.337 85.741 229.364 87.231 229.447 88.717 C 228.476 91.959 227.237 95.823 227.413 98.885 C 227.543 101.799 230.068 105.055 232.82 107.161 C 232.875 107.409 232.932 107.657 232.988 107.908 C 234.08 113.296 234.525 118.567 234.372 123.777 C 246.661 126.301 259.033 124.912 271.135 121.88 C 270.623 119.443 270.264 116.961 270.237 114.4 C 270.164 107.823 270.313 101.283 270.568 94.708 C 270.68 91.681 270.431 89.056 270.123 86.119 C 269.784 82.897 270.373 79.919 269.215 76.763 C 268.259 74.164 265.077 72.656 262.539 71.821 C 260.603 71.185 258.323 71.78 256.569 70.783 C 256.569 70.783 255.316 70.475 255.388 66.955 C 255.388 66.955 242.408 69.269 239.64 68.648 C 239.64 68.648 240.908 71.351 238.472 71.872 Z " fill="rgb(3,165,203)"/><path d=" M 236.211 52.756 C 236.211 52.756 236.261 52.936 236.395 53.26 C 236.452 53.424 236.545 53.616 236.695 53.807 C 236.833 54.013 236.993 54.252 237.235 54.447 C 237.667 54.901 238.335 55.251 239.085 55.483 C 239.46 55.568 239.855 55.676 240.265 55.673 C 240.673 55.707 241.081 55.661 241.488 55.631 C 241.888 55.557 242.284 55.48 242.663 55.355 C 243.048 55.267 243.385 55.068 243.733 54.927 C 244.397 54.583 244.973 54.195 245.392 53.779 C 245.828 53.392 246.141 52.964 246.309 52.695 C 246.48 52.407 246.567 52.231 246.567 52.231 L 236.211 52.756 L 236.211 52.756 Z " fill="rgb(210,68,90)"/><path d=" M 248.919 62.117 C 248.524 62.652 248.068 63.073 247.571 63.448 C 247.076 63.827 246.521 64.144 245.873 64.364 C 245.213 64.564 244.524 64.601 243.903 64.515 C 243.275 64.439 242.673 64.285 242.069 64.007 C 243.283 63.468 244.507 63.425 245.473 63.093 C 246.485 62.783 247.608 62.228 248.919 62.117 Z " fill="rgb(247,144,111)"/><path d=" M 238.761 39.44 C 239.113 40.139 239.38 40.887 239.499 41.693 C 239.627 42.489 239.536 43.419 239.109 44.207 C 238.692 44.999 238.087 45.569 237.539 46.101 C 236.988 46.64 236.431 47.124 235.919 47.661 L 235.859 46.749 C 237.043 47.829 238.895 48.243 240.652 48.889 C 239.712 48.968 238.776 48.973 237.821 48.831 C 236.875 48.683 235.893 48.369 235.049 47.719 L 234.533 47.321 L 234.988 46.807 C 235.512 46.213 236.068 45.645 236.637 45.14 C 237.195 44.623 237.737 44.145 238.107 43.613 C 238.477 43.085 238.665 42.444 238.737 41.715 C 238.803 40.989 238.773 40.227 238.761 39.44 Z " fill="rgb(247,144,111)"/><path d=" M 223.88 125.283 C 223.88 125.283 219.648 124.549 216.979 123.651 C 214.685 122.915 211.723 121.616 209.212 121.603 C 206.943 121.664 204.555 122.995 202.515 123.695 C 201.557 124.095 195.615 125.939 198.177 127.541 C 197.443 127.896 196.063 128.484 195.757 129.335 C 195.584 130.277 196.18 131.083 197.248 130.668 C 195.799 131.492 196.703 133.385 198.228 133 C 197.331 135.668 202.917 133.087 203.78 132.819 C 208.62 131.168 213.724 134.256 218.425 131.831 C 220.04 131.033 223.257 130.579 227.18 130.179 C 226.864 128.383 226.476 126.585 226.071 124.761 C 225.313 124.96 224.575 125.143 223.88 125.283 Z " fill="rgb(251,206,204)"/><path d=" M 269.58 80.143 C 269.244 78.909 267.972 72.411 265.593 74.381 C 264.181 75.552 264.325 79.031 263.9 80.723 C 262.159 87.649 260.041 94.487 257.889 101.299 C 256.528 105.604 254.524 110.233 253.861 114.719 C 245.375 117.319 234.043 122.471 226.149 124.539 C 226.525 126.233 226.887 127.903 227.18 129.573 C 233.247 128.956 241.133 128.48 247.011 126.915 C 249.228 126.321 251.391 125.928 253.739 125.411 C 254.457 125.283 256.24 125.18 256.8 124.763 C 257.552 124.207 258.028 122.111 258.396 121.197 C 259.809 117.055 262.359 113.376 264.193 109.421 C 265.801 105.955 266.32 102.221 267.533 98.645 C 268.389 96.124 269.132 93.496 269.903 90.947 C 270.984 87.367 270.547 83.687 269.58 80.143 Z " fill="rgb(251,206,204)"/><path d=" M 198.248 133.107 C 199.537 131.988 200.951 131.088 202.463 130.387 C 203.972 129.7 205.581 129.2 207.291 129.301 C 206.473 129.025 205.577 129.016 204.72 129.141 C 203.855 129.26 203.025 129.544 202.235 129.9 C 201.455 130.269 200.705 130.713 200.031 131.255 C 199.357 131.791 198.732 132.395 198.248 133.107 Z " fill="rgb(248,156,149)"/><path d=" M 197.088 130.812 C 198.529 129.656 200.139 128.815 201.833 128.197 C 202.676 127.88 203.548 127.645 204.433 127.459 C 205.32 127.28 206.223 127.184 207.148 127.173 C 206.245 126.959 205.297 126.952 204.371 127.049 C 203.439 127.143 202.528 127.373 201.649 127.691 C 200.773 128.017 199.924 128.425 199.149 128.949 C 198.375 129.467 197.653 130.075 197.088 130.812 Z " fill="rgb(248,156,149)"/><path d=" M 197.889 127.764 C 198.86 127.3 199.819 126.837 200.801 126.427 C 201.784 126.023 202.772 125.639 203.783 125.348 C 204.795 125.044 205.827 124.827 206.869 124.731 C 207.912 124.637 208.979 124.7 210.016 124.983 C 209.055 124.488 207.943 124.312 206.853 124.313 C 205.753 124.319 204.673 124.528 203.631 124.829 C 202.592 125.145 201.584 125.553 200.628 126.055 C 199.668 126.548 198.743 127.109 197.889 127.764 Z " fill="rgb(248,156,149)"/><path d=" M 264.389 72.299 C 264.079 72.353 263.761 72.46 263.435 72.627 C 262.395 73.151 260.669 78.52 260.429 79.633 C 256.439 98.189 254.079 105.105 252.327 113.181 C 240.172 117.083 229.585 121.88 222.067 123.795 C 223.085 126.512 224.384 129.544 223.292 131.968 C 235.175 130.677 235.996 130.089 243.528 128.743 C 257.685 126.212 263.221 123.015 263.837 121.88 C 267.336 115.456 272.212 87.163 271.044 79.409 C 270.68 76.992 268.391 71.583 264.389 72.299 Z " fill="rgb(2,181,221)"/><path d=" M 225.72 13.241 C 222.249 16.588 221.009 24.52 222.868 28.735 C 224.48 28.611 225.967 27.743 227.579 27.619 C 227.703 25.388 227.827 23.157 228.819 21.049 C 228.819 22.785 228.819 24.644 229.437 26.503 C 230.429 26.255 231.545 26.008 232.66 25.884 C 232.784 24.397 232.66 22.661 233.28 21.297 C 233.28 23.9 233.032 25.635 235.759 25.76 C 237.493 25.884 239.973 25.635 241.584 25.016 C 241.584 23.9 241.584 22.661 241.956 21.669 C 242.328 23.157 242.452 24.644 243.94 25.264 C 245.179 25.76 247.161 25.14 248.401 25.14 C 251.004 25.016 253.608 24.892 256.333 24.892 C 255.715 21.545 254.971 18.075 254.351 14.605 C 253.731 10.763 253.731 7.664 249.517 6.673 C 241.956 4.812 236.131 7.168 229.313 9.399 L 225.72 13.241 L 225.72 13.241 Z " fill="rgb(112,38,44)"/><path d=" M 227.243 34.647 C 226.82 34.281 226.66 33.656 226.74 33.085 C 226.805 32.504 227.092 31.991 227.439 31.568 C 227.805 31.159 228.241 30.829 228.739 30.631 C 229.228 30.428 229.777 30.331 230.317 30.464 C 229.575 31.241 228.985 31.807 228.448 32.437 C 228.173 32.737 227.945 33.052 227.732 33.388 C 227.528 33.729 227.355 34.105 227.243 34.647 Z " fill="rgb(21,19,17)"/><path d=" M 248.888 27.759 C 249.368 27.481 250.037 27.543 250.541 27.721 C 251.077 27.896 251.536 28.217 251.933 28.587 C 252.312 28.976 252.639 29.421 252.835 29.936 C 253.035 30.439 253.139 31.031 252.947 31.572 C 252.588 31.137 252.268 30.82 251.951 30.485 C 251.627 30.165 251.324 29.841 251.001 29.539 C 250.693 29.221 250.368 28.931 250.041 28.628 C 249.685 28.335 249.399 28.049 248.888 27.759 Z " fill="rgb(21,19,17)"/><path d=" M 315.641 369.667 L 315.641 389.908 L 232.389 389.908 L 232.389 352.945 L 315.641 352.945 L 315.641 369.667 L 315.641 369.667 L 315.641 369.667 Z " fill="rgb(230,166,7)"/><path d=" M 233.056 389.241 L 314.975 389.241 L 314.975 353.612 L 233.056 353.612 L 233.056 389.241 L 233.056 389.241 L 233.056 389.241 Z  M 316.308 390.575 L 231.723 390.575 L 231.723 352.279 L 316.308 352.279 L 316.308 390.575 L 316.308 390.575 L 316.308 390.575 Z " fill="rgb(230,166,7)"/><path d=" M 301.488 389.908 L 232.389 389.908 L 232.389 352.945 L 301.488 352.945 L 301.488 389.908 L 301.488 389.908 L 301.488 389.908 Z " fill="rgb(255,186,8)"/><path d=" M 233.056 389.241 L 300.821 389.241 L 300.821 353.612 L 233.056 353.612 L 233.056 389.241 L 233.056 389.241 L 233.056 389.241 Z  M 302.155 390.575 L 231.723 390.575 L 231.723 352.279 L 302.155 352.279 L 302.155 390.575 L 302.155 390.575 L 302.155 390.575 Z " fill="rgb(230,166,7)"/><path d=" M 202.877 353.368 L 277.341 353.368 L 277.341 316.407 L 202.877 316.407 L 202.877 353.368 L 202.877 353.368 L 202.877 353.368 Z " fill="rgb(230,166,7)"/><path d=" M 203.544 352.701 L 276.675 352.701 L 276.675 317.073 L 203.544 317.073 L 203.544 352.701 L 203.544 352.701 L 203.544 352.701 Z  M 278.008 354.035 L 202.211 354.035 L 202.211 315.74 L 278.008 315.74 L 278.008 354.035 L 278.008 354.035 L 278.008 354.035 Z " fill="rgb(230,166,7)"/><path d=" M 215.537 353.368 L 277.341 353.368 L 277.341 316.407 L 215.537 316.407 L 215.537 353.368 L 215.537 353.368 L 215.537 353.368 Z " fill="rgb(255,186,8)"/><path d=" M 216.204 352.701 L 276.675 352.701 L 276.675 317.073 L 216.204 317.073 L 216.204 352.701 L 216.204 352.701 L 216.204 352.701 Z  M 278.008 354.035 L 214.871 354.035 L 214.871 315.74 L 278.008 315.74 L 278.008 354.035 L 278.008 354.035 L 278.008 354.035 Z " fill="rgb(230,166,7)"/><path d=" M 174.771 316.829 L 260.732 316.829 L 260.732 274.16 L 174.771 274.16 L 174.771 316.829 L 174.771 316.829 L 174.771 316.829 Z " fill="rgb(230,166,7)"/><path d=" M 175.437 316.163 L 260.065 316.163 L 260.065 274.827 L 175.437 274.827 L 175.437 316.163 L 175.437 316.163 L 175.437 316.163 Z  M 261.399 317.496 L 174.104 317.496 L 174.104 273.493 L 261.399 273.493 L 261.399 317.496 L 261.399 317.496 L 261.399 317.496 Z " fill="rgb(230,166,7)"/><path d=" M 198.964 316.829 L 260.732 316.829 L 260.732 274.16 L 198.964 274.16 L 198.964 316.829 L 198.964 316.829 L 198.964 316.829 Z " fill="rgb(255,186,8)"/><path d=" M 199.631 316.163 L 260.065 316.163 L 260.065 274.827 L 199.631 274.827 L 199.631 316.163 L 199.631 316.163 L 199.631 316.163 Z  M 261.399 317.496 L 198.297 317.496 L 198.297 273.493 L 261.399 273.493 L 261.399 317.496 L 261.399 317.496 L 261.399 317.496 Z " fill="rgb(230,166,7)"/><path d=" M 365.813 316.829 L 279.853 316.829 L 279.853 274.16 L 365.813 274.16 L 365.813 316.829 L 365.813 316.829 Z " fill="rgb(230,166,7)"/><path d=" M 280.52 316.163 L 365.147 316.163 L 365.147 274.827 L 280.52 274.827 L 280.52 316.163 L 280.52 316.163 L 280.52 316.163 Z  M 366.48 317.496 L 279.187 317.496 L 279.187 273.493 L 366.48 273.493 L 366.48 317.496 L 366.48 317.496 L 366.48 317.496 Z " fill="rgb(230,166,7)"/><path d=" M 341.62 316.829 L 279.853 316.829 L 279.853 274.16 L 341.62 274.16 L 341.62 316.829 L 341.62 316.829 L 341.62 316.829 Z " fill="rgb(255,186,8)"/><path d=" M 280.52 316.163 L 340.953 316.163 L 340.953 274.827 L 280.52 274.827 L 280.52 316.163 L 280.52 316.163 L 280.52 316.163 Z  M 342.287 317.496 L 279.187 317.496 L 279.187 273.493 L 342.287 273.493 L 342.287 317.496 L 342.287 317.496 L 342.287 317.496 Z " fill="rgb(230,166,7)"/><path d=" M 351.505 353.368 L 277.041 353.368 L 277.041 316.407 L 351.505 316.407 L 351.505 353.368 L 351.505 353.368 L 351.505 353.368 Z " fill="rgb(230,166,7)"/><path d=" M 277.708 352.701 L 350.839 352.701 L 350.839 317.073 L 277.708 317.073 L 277.708 352.701 L 277.708 352.701 L 277.708 352.701 Z  M 352.172 354.035 L 276.375 354.035 L 276.375 315.74 L 352.172 315.74 L 352.172 354.035 L 352.172 354.035 L 352.172 354.035 Z " fill="none"/><path d=" M 338.844 353.368 L 277.041 353.368 L 277.041 316.407 L 338.844 316.407 L 338.844 353.368 L 338.844 353.368 L 338.844 353.368 Z " fill="rgb(255,186,8)"/><path d=" M 277.708 352.701 L 338.177 352.701 L 338.177 317.073 L 277.708 317.073 L 277.708 352.701 L 277.708 352.701 L 277.708 352.701 Z  M 339.511 354.035 L 276.375 354.035 L 276.375 315.74 L 339.511 315.74 L 339.511 354.035 L 339.511 354.035 L 339.511 354.035 Z " fill="rgb(230,166,7)"/><path d=" M 250.468 316.829 L 293.548 316.829 L 293.548 274.16 L 250.468 274.16 L 250.468 316.829 L 250.468 316.829 Z " fill="rgb(255,186,8)"/><path d=" M 251.135 316.163 L 292.881 316.163 L 292.881 274.827 L 251.135 274.827 L 251.135 316.163 L 251.135 316.163 L 251.135 316.163 Z  M 294.215 317.496 L 249.801 317.496 L 249.801 273.493 L 294.215 273.493 L 294.215 317.496 L 294.215 317.496 L 294.215 317.496 Z " fill="rgb(230,166,7)"/><path d=" M 226.447 520.137 L 273.069 520.137 L 273.069 486.636 L 226.447 486.636 L 226.447 520.137 L 226.447 520.137 L 226.447 520.137 Z " fill="rgb(64,46,2)"/><path d=" M 227.113 519.471 L 272.403 519.471 L 272.403 487.303 L 227.113 487.303 L 227.113 519.471 L 227.113 519.471 L 227.113 519.471 Z  M 273.736 520.804 L 225.78 520.804 L 225.78 485.969 L 273.736 485.969 L 273.736 520.804 L 273.736 520.804 L 273.736 520.804 Z " fill="rgb(77,48,0)"/><path d=" M 240.393 520.137 L 273.055 520.137 L 273.055 486.636 L 240.393 486.636 L 240.393 520.137 L 240.393 520.137 L 240.393 520.137 Z " fill="rgb(128,92,4)"/><path d=" M 241.06 519.471 L 272.388 519.471 L 272.388 487.303 L 241.06 487.303 L 241.06 519.471 L 241.06 519.471 L 241.06 519.471 Z  M 273.721 520.804 L 239.727 520.804 L 239.727 485.969 L 273.721 485.969 L 273.721 520.804 L 273.721 520.804 L 273.721 520.804 Z " fill="rgb(64,46,2)"/><path d=" M 319.505 520.137 L 272.881 520.137 L 272.881 486.636 L 319.505 486.636 L 319.505 520.137 L 319.505 520.137 L 319.505 520.137 Z " fill="rgb(64,46,2)"/><path d=" M 273.548 519.471 L 318.839 519.471 L 318.839 487.303 L 273.548 487.303 L 273.548 519.471 L 273.548 519.471 L 273.548 519.471 Z  M 320.172 520.804 L 272.215 520.804 L 272.215 485.969 L 320.172 485.969 L 320.172 520.804 L 320.172 520.804 L 320.172 520.804 Z " fill="rgb(64,46,2)"/><path d=" M 305.556 520.137 L 272.896 520.137 L 272.896 486.636 L 305.556 486.636 L 305.556 520.137 L 305.556 520.137 L 305.556 520.137 Z " fill="rgb(128,92,4)"/><path d=" M 273.563 519.471 L 304.889 519.471 L 304.889 487.303 L 273.563 487.303 L 273.563 519.471 L 273.563 519.471 L 273.563 519.471 Z  M 306.223 520.804 L 272.229 520.804 L 272.229 485.969 L 306.223 485.969 L 306.223 520.804 L 306.223 520.804 L 306.223 520.804 Z " fill="rgb(77,48,0)"/><path d=" M 215.493 492.115 L 267.336 492.115 L 267.336 453.441 L 215.493 453.441 L 215.493 492.115 L 215.493 492.115 L 215.493 492.115 Z " fill="rgb(64,46,2)"/><path d=" M 216.16 491.448 L 266.669 491.448 L 266.669 454.108 L 216.16 454.108 L 216.16 491.448 L 216.16 491.448 L 216.16 491.448 Z  M 268.003 492.781 L 214.827 492.781 L 214.827 452.775 L 268.003 452.775 L 268.003 492.781 L 268.003 492.781 L 268.003 492.781 Z " fill="rgb(64,46,2)"/><path d=" M 230.084 492.115 L 267.336 492.115 L 267.336 453.441 L 230.084 453.441 L 230.084 492.115 L 230.084 492.115 L 230.084 492.115 Z " fill="rgb(128,92,4)"/><path d=" M 230.751 491.448 L 266.669 491.448 L 266.669 454.108 L 230.751 454.108 L 230.751 491.448 L 230.751 491.448 L 230.751 491.448 Z  M 268.003 492.781 L 229.417 492.781 L 229.417 452.775 L 268.003 452.775 L 268.003 492.781 L 268.003 492.781 L 268.003 492.781 Z " fill="rgb(77,48,0)"/><path d=" M 330.715 492.115 L 278.869 492.115 L 278.869 453.441 L 330.715 453.441 L 330.715 492.115 L 330.715 492.115 L 330.715 492.115 Z " fill="rgb(64,46,2)"/><path d=" M 279.536 491.448 L 330.048 491.448 L 330.048 454.108 L 279.536 454.108 L 279.536 491.448 L 279.536 491.448 L 279.536 491.448 Z  M 331.381 492.781 L 278.203 492.781 L 278.203 452.775 L 331.381 452.775 L 331.381 492.781 L 331.381 492.781 L 331.381 492.781 Z " fill="rgb(64,46,2)"/><path d=" M 316.123 492.115 L 278.869 492.115 L 278.869 453.441 L 316.123 453.441 L 316.123 492.115 L 316.123 492.115 L 316.123 492.115 Z " fill="rgb(128,92,4)"/><path d=" M 279.536 491.448 L 315.456 491.448 L 315.456 454.108 L 279.536 454.108 L 279.536 491.448 L 279.536 491.448 L 279.536 491.448 Z  M 316.789 492.781 L 278.203 492.781 L 278.203 452.775 L 316.789 452.775 L 316.789 492.781 L 316.789 492.781 L 316.789 492.781 Z " fill="rgb(64,46,2)"/><path d=" M 261.147 492.115 L 287.128 492.115 L 287.128 453.441 L 261.147 453.441 L 261.147 492.115 L 261.147 492.115 L 261.147 492.115 Z " fill="rgb(128,92,4)"/><path d=" M 261.813 491.448 L 286.461 491.448 L 286.461 454.108 L 261.813 454.108 L 261.813 491.448 L 261.813 491.448 L 261.813 491.448 Z  M 287.795 492.781 L 260.48 492.781 L 260.48 452.775 L 287.795 452.775 L 287.795 492.781 L 287.795 492.781 L 287.795 492.781 Z " fill="rgb(64,46,2)"/><path d=" M 365.813 224.076 L 279.853 224.076 L 279.853 181.407 L 365.813 181.407 L 365.813 224.076 L 365.813 224.076 Z " fill="rgb(230,166,7)"/><path d=" M 280.52 223.409 L 365.147 223.409 L 365.147 182.073 L 280.52 182.073 L 280.52 223.409 L 280.52 223.409 L 280.52 223.409 Z  M 366.48 224.743 L 279.187 224.743 L 279.187 180.74 L 366.48 180.74 L 366.48 224.743 L 366.48 224.743 L 366.48 224.743 Z " fill="rgb(230,166,7)"/><path d=" M 341.62 224.076 L 279.853 224.076 L 279.853 181.407 L 341.62 181.407 L 341.62 224.076 L 341.62 224.076 L 341.62 224.076 Z " fill="rgb(255,186,8)"/><path d=" M 280.52 223.409 L 340.953 223.409 L 340.953 182.073 L 280.52 182.073 L 280.52 223.409 L 280.52 223.409 L 280.52 223.409 Z  M 342.287 224.743 L 279.187 224.743 L 279.187 180.74 L 342.287 180.74 L 342.287 224.743 L 342.287 224.743 L 342.287 224.743 Z " fill="rgb(230,166,7)"/><path d=" M 174.771 224.076 L 260.732 224.076 L 260.732 181.407 L 174.771 181.407 L 174.771 224.076 L 174.771 224.076 L 174.771 224.076 Z " fill="rgb(230,166,7)"/><path d=" M 175.437 223.409 L 260.065 223.409 L 260.065 182.073 L 175.437 182.073 L 175.437 223.409 L 175.437 223.409 L 175.437 223.409 Z  M 261.399 224.743 L 174.104 224.743 L 174.104 180.74 L 261.399 180.74 L 261.399 224.743 L 261.399 224.743 L 261.399 224.743 Z " fill="rgb(230,166,7)"/><path d=" M 198.964 224.076 L 260.732 224.076 L 260.732 181.407 L 198.964 181.407 L 198.964 224.076 L 198.964 224.076 L 198.964 224.076 Z " fill="rgb(255,186,8)"/><path d=" M 199.631 223.409 L 260.065 223.409 L 260.065 182.073 L 199.631 182.073 L 199.631 223.409 L 199.631 223.409 L 199.631 223.409 Z  M 261.399 224.743 L 198.297 224.743 L 198.297 180.74 L 261.399 180.74 L 261.399 224.743 L 261.399 224.743 L 261.399 224.743 Z " fill="rgb(230,166,7)"/><path d=" M 290.115 224.076 L 247.036 224.076 L 247.036 181.407 L 290.115 181.407 L 290.115 224.076 L 290.115 224.076 L 290.115 224.076 Z " fill="rgb(255,186,8)"/><path d=" M 247.703 223.409 L 289.448 223.409 L 289.448 182.073 L 247.703 182.073 L 247.703 223.409 L 247.703 223.409 L 247.703 223.409 Z  M 290.781 224.743 L 246.369 224.743 L 246.369 180.74 L 290.781 180.74 L 290.781 224.743 L 290.781 224.743 L 290.781 224.743 Z " fill="rgb(230,166,7)"/><path d=" M 350.355 181.916 L 264.395 181.916 L 264.395 139.247 L 350.355 139.247 L 350.355 181.916 L 350.355 181.916 L 350.355 181.916 Z " fill="rgb(230,166,7)"/><path d=" M 265.061 181.249 L 349.688 181.249 L 349.688 139.913 L 265.061 139.913 L 265.061 181.249 L 265.061 181.249 L 265.061 181.249 Z  M 351.021 182.583 L 263.728 182.583 L 263.728 138.58 L 351.021 138.58 L 351.021 182.583 L 351.021 182.583 L 351.021 182.583 Z " fill="rgb(230,166,7)"/><path d=" M 326.163 181.916 L 264.395 181.916 L 264.395 139.247 L 326.163 139.247 L 326.163 181.916 L 326.163 181.916 L 326.163 181.916 Z " fill="rgb(255,186,8)"/><path d=" M 265.061 181.249 L 325.496 181.249 L 325.496 139.913 L 265.061 139.913 L 265.061 181.249 L 265.061 181.249 L 265.061 181.249 Z  M 326.829 182.583 L 263.728 182.583 L 263.728 138.58 L 326.829 138.58 L 326.829 182.583 L 326.829 182.583 L 326.829 182.583 Z " fill="rgb(230,166,7)"/><path d=" M 382.529 273.557 L 284.056 273.557 L 284.056 224.679 L 382.529 224.679 L 382.529 273.557 L 382.529 273.557 Z " fill="rgb(230,166,7)"/><path d=" M 284.723 272.891 L 381.863 272.891 L 381.863 225.345 L 284.723 225.345 L 284.723 272.891 L 284.723 272.891 L 284.723 272.891 Z  M 383.196 274.224 L 283.389 274.224 L 283.389 224.012 L 383.196 224.012 L 383.196 274.224 L 383.196 274.224 L 383.196 274.224 Z " fill="rgb(230,166,7)"/><path d=" M 354.813 273.557 L 284.056 273.557 L 284.056 224.679 L 354.813 224.679 L 354.813 273.557 L 354.813 273.557 L 354.813 273.557 Z " fill="rgb(255,186,8)"/><path d=" M 284.723 272.891 L 354.147 272.891 L 354.147 225.345 L 284.723 225.345 L 284.723 272.891 L 284.723 272.891 L 284.723 272.891 Z  M 355.48 274.224 L 283.389 274.224 L 283.389 224.012 L 355.48 224.012 L 355.48 274.224 L 355.48 274.224 L 355.48 274.224 Z " fill="rgb(230,166,7)"/><path d=" M 163.677 273.557 L 262.151 273.557 L 262.151 224.679 L 163.677 224.679 L 163.677 273.557 L 163.677 273.557 L 163.677 273.557 Z " fill="rgb(230,166,7)"/><path d=" M 164.344 272.891 L 261.484 272.891 L 261.484 225.345 L 164.344 225.345 L 164.344 272.891 L 164.344 272.891 L 164.344 272.891 Z  M 262.817 274.224 L 163.011 274.224 L 163.011 224.012 L 262.817 224.012 L 262.817 274.224 L 262.817 274.224 L 262.817 274.224 Z " fill="rgb(230,166,7)"/><path d=" M 191.392 273.557 L 262.151 273.557 L 262.151 224.679 L 191.392 224.679 L 191.392 273.557 L 191.392 273.557 Z " fill="rgb(255,186,8)"/><path d=" M 192.059 272.891 L 261.484 272.891 L 261.484 225.345 L 192.059 225.345 L 192.059 272.891 L 192.059 272.891 Z  M 262.817 274.224 L 190.725 274.224 L 190.725 224.012 L 262.817 224.012 L 262.817 274.224 L 262.817 274.224 Z " fill="rgb(230,166,7)"/><path d=" M 295.811 273.557 L 246.461 273.557 L 246.461 224.679 L 295.811 224.679 L 295.811 273.557 L 295.811 273.557 L 295.811 273.557 Z " fill="rgb(251,200,68)"/><path d=" M 247.128 272.891 L 295.144 272.891 L 295.144 225.345 L 247.128 225.345 L 247.128 272.891 L 247.128 272.891 L 247.128 272.891 Z  M 296.477 274.224 L 245.795 274.224 L 245.795 224.012 L 296.477 224.012 L 296.477 274.224 L 296.477 274.224 L 296.477 274.224 Z " fill="rgb(219,178,77)"/><path d=" M 295.811 273.557 L 246.461 273.557 L 246.461 224.679 L 295.811 224.679 L 295.811 273.557 L 295.811 273.557 L 295.811 273.557 Z " fill="rgb(255,186,8)"/><path d=" M 247.128 272.891 L 295.144 272.891 L 295.144 225.345 L 247.128 225.345 L 247.128 272.891 L 247.128 272.891 L 247.128 272.891 Z  M 296.477 274.224 L 245.795 274.224 L 245.795 224.012 L 296.477 224.012 L 296.477 274.224 L 296.477 274.224 L 296.477 274.224 Z " fill="rgb(230,166,7)"/><path d=" M 232.389 425.04 L 315.641 425.04 L 315.641 388.08 L 232.389 388.08 L 232.389 425.04 L 232.389 425.04 L 232.389 425.04 Z " fill="rgb(230,166,7)"/><path d=" M 233.056 424.373 L 314.975 424.373 L 314.975 388.747 L 233.056 388.747 L 233.056 424.373 L 233.056 424.373 L 233.056 424.373 Z  M 316.308 425.707 L 231.723 425.707 L 231.723 387.413 L 316.308 387.413 L 316.308 425.707 L 316.308 425.707 L 316.308 425.707 Z " fill="rgb(230,166,7)"/><path d=" M 253.148 425.04 L 315.641 425.04 L 315.641 388.08 L 253.148 388.08 L 253.148 425.04 L 253.148 425.04 L 253.148 425.04 Z " fill="rgb(255,186,8)"/><path d=" M 253.815 424.373 L 314.975 424.373 L 314.975 388.747 L 253.815 388.747 L 253.815 424.373 L 253.815 424.373 L 253.815 424.373 Z  M 316.308 425.707 L 252.481 425.707 L 252.481 387.413 L 316.308 387.413 L 316.308 425.707 L 316.308 425.707 L 316.308 425.707 Z " fill="rgb(230,166,7)"/><path d=" M 222.264 453.903 L 273.077 453.903 L 273.077 420.403 L 222.264 420.403 L 222.264 453.903 L 222.264 453.903 L 222.264 453.903 Z " fill="rgb(64,46,2)"/><path d=" M 222.931 453.236 L 272.411 453.236 L 272.411 421.069 L 222.931 421.069 L 222.931 453.236 L 222.931 453.236 L 222.931 453.236 Z  M 273.744 454.569 L 221.597 454.569 L 221.597 419.736 L 273.744 419.736 L 273.744 454.569 L 273.744 454.569 L 273.744 454.569 Z " fill="rgb(64,46,2)"/><path d=" M 230.903 453.903 L 273.077 453.903 L 273.077 420.403 L 230.903 420.403 L 230.903 453.903 L 230.903 453.903 L 230.903 453.903 Z " fill="rgb(128,92,4)"/><path d=" M 231.569 453.236 L 272.411 453.236 L 272.411 421.069 L 231.569 421.069 L 231.569 453.236 L 231.569 453.236 L 231.569 453.236 Z  M 273.744 454.569 L 230.236 454.569 L 230.236 419.736 L 273.744 419.736 L 273.744 454.569 L 273.744 454.569 L 273.744 454.569 Z " fill="rgb(64,46,2)"/><path d=" M 323.685 453.903 L 272.873 453.903 L 272.873 420.403 L 323.685 420.403 L 323.685 453.903 L 323.685 453.903 L 323.685 453.903 Z " fill="rgb(64,46,2)"/><path d=" M 273.54 453.236 L 323.019 453.236 L 323.019 421.069 L 273.54 421.069 L 273.54 453.236 L 273.54 453.236 L 273.54 453.236 Z  M 324.352 454.569 L 272.207 454.569 L 272.207 419.736 L 324.352 419.736 L 324.352 454.569 L 324.352 454.569 L 324.352 454.569 Z " fill="rgb(64,46,2)"/><path d=" M 315.048 453.903 L 272.873 453.903 L 272.873 420.403 L 315.048 420.403 L 315.048 453.903 L 315.048 453.903 L 315.048 453.903 Z " fill="rgb(128,92,4)"/><path d=" M 273.54 453.236 L 314.381 453.236 L 314.381 421.069 L 273.54 421.069 L 273.54 453.236 L 273.54 453.236 L 273.54 453.236 Z  M 315.715 454.569 L 272.207 454.569 L 272.207 419.736 L 315.715 419.736 L 315.715 454.569 L 315.715 454.569 L 315.715 454.569 Z " fill="rgb(77,48,0)"/><path d=" M 511.289 310.797 C 511.699 304.833 465.665 306.308 465.665 306.308 C 459.764 303.545 441.448 281.079 439.217 278.769 C 438.123 277.123 437.095 275.496 436.373 273.939 C 435.787 272.711 435.051 271.46 434.8 270.02 C 434.565 268.435 434.876 266.823 434.499 265.133 C 434.227 263.86 433.136 258.187 431.371 257.855 C 430.297 257.593 431.248 261.448 431.467 262.412 C 431.493 262.961 431.605 263.443 431.715 263.924 C 431.565 263.283 428.873 261.537 428.363 260.353 C 427.433 258.172 427.253 246.959 423.379 254.436 C 421.589 257.895 423.193 262.613 424.112 266.096 C 425.505 271.387 427.849 276.592 431.649 280.607 C 433.685 282.764 435.475 285.324 437.177 287.9 C 451.729 312.412 460.235 317.009 460.235 317.009 C 469.735 320.313 502.155 317.068 502.155 317.068 C 502.155 317.068 510.881 316.761 511.289 310.797 Z " fill="rgb(184,110,102)"/><path d=" M 366.54 230.093 L 417.163 203.496 L 454.22 227.725 L 398.459 253.849 L 366.54 230.093 L 366.54 230.093 Z " fill="rgb(249,209,107)"/><path d=" M 398.459 253.849 L 454.22 227.725 L 454.568 227.953 L 447.376 262.087 L 391.003 288.079 L 398.368 253.783 L 398.459 253.849 L 398.459 253.849 Z " fill="rgb(230,166,7)"/><path d=" M 361.341 265.647 L 366.235 230.256 L 366.54 230.093 L 398.368 253.783 L 391.003 288.079 L 390.98 288.089 L 361.341 265.647 L 361.341 265.647 Z " fill="rgb(255,186,8)"/><path d=" M 459.548 299.455 C 455.863 304.444 438.779 321.433 438.779 321.433 C 437.669 320.649 420.029 293.135 420.029 293.135 C 417.98 285.769 417.491 278.147 416.095 279.445 C 415.743 281.237 415.196 282.563 415.839 284.767 C 414.556 280.367 407.355 268.093 407.612 270.913 C 407.316 273.5 408.953 275.556 409.789 278.227 C 408.816 275.889 405.389 270.961 404.573 271.631 C 404.745 274.023 406.581 277.923 407.827 279.597 C 406.253 277.788 402.819 272.3 401.999 273.251 C 402.641 275.451 404.152 278.105 405.261 280.113 C 404.013 278.435 402.172 275.636 400.329 274.491 C 401.527 280.021 410.928 292.909 412.959 294.563 C 413.543 295.033 414.051 295.535 414.532 296.045 C 418.344 306.123 432.232 335.589 436.581 334.571 C 443.305 332.995 464.22 314.312 464.22 314.312 C 464.22 314.312 463.235 294.468 459.548 299.455 Z " fill="rgb(213,127,114)"/><path d=" M 492.803 550.833 C 489.909 550.165 486.349 549.72 483.901 548.162 C 481.707 546.66 480.896 545.22 480.777 543.589 C 485.535 543.673 491.035 544.968 492.737 543.849 C 498.053 540.348 486.717 391.38 486.717 391.38 L 510.365 388.915 L 509.008 415.492 C 509.008 415.492 505.944 468.65 507.259 477.564 C 508.581 486.473 505.401 531.281 504.611 546.923 L 504.563 548.661 L 504.485 551.44 C 500.953 552.613 495.339 551.34 492.803 550.833 Z " fill="rgb(213,127,114)"/><path d=" M 475.22 544.535 C 476.647 543.756 478.636 543.55 480.777 543.589 C 480.896 545.22 481.707 546.66 483.901 548.162 C 486.349 549.72 489.909 550.165 492.803 550.833 C 495.339 551.34 500.953 552.613 504.485 551.44 L 504.423 553.703 C 503.264 557.728 478.781 550.971 475.665 547.571 C 474.672 546.485 474.056 545.174 475.22 544.535 Z " fill="rgb(47,23,36)"/><path d=" M 464.313 552.344 C 461.42 551.676 457.86 551.233 455.412 549.672 C 453.217 548.172 452.407 546.731 452.284 545.1 C 457.045 545.185 462.545 546.479 464.245 545.36 C 469.563 541.86 458.227 392.891 458.227 392.891 L 481.873 390.423 L 480.516 417.001 C 480.516 417.001 477.453 470.161 478.769 479.076 C 480.092 487.984 476.912 532.793 476.12 548.433 L 476.073 550.174 L 475.993 552.952 C 472.464 554.124 466.849 552.85 464.313 552.344 Z " fill="rgb(213,127,114)"/><path d=" M 446.732 546.045 C 448.157 545.267 450.147 545.062 452.284 545.1 C 452.407 546.731 453.217 548.172 455.412 549.672 C 457.86 551.233 461.42 551.676 464.313 552.344 C 466.849 552.85 472.464 554.124 475.993 552.952 L 475.933 555.213 C 474.775 559.24 450.289 552.48 447.175 549.084 C 446.183 547.997 445.565 546.686 446.732 546.045 Z " fill="rgb(47,23,36)"/><path d=" M 504.112 253.288 C 498.412 253.037 493.483 248.573 489.389 245.029 C 485.352 241.539 483.491 236.533 482.863 231.449 C 478.423 234.523 473.732 232.835 468.945 234 C 455.615 237.259 459.032 256.38 458.6 265.86 C 458.332 271.767 459.985 279.395 465.628 282.884 C 468.587 284.764 474.868 286.321 475.8 286.799 C 478.011 287.923 476.6 292.456 475.795 295.143 C 474.72 299.44 469.543 303.624 468.811 304.815 C 466.133 309.165 474.72 314.752 478.48 316.633 C 487.887 321.468 499.777 309.912 500.048 299.169 C 494.939 297.827 489.789 298.111 488.175 292.74 C 487.639 290.589 486.425 286.003 487.936 284.451 C 488.461 283.911 488.461 283.911 492.779 280.307 C 497.977 275.969 500.98 270.355 500.98 270.355 C 502.545 270.355 506.117 270.607 508.157 267.621 C 511.891 262.147 510.448 259.004 503.459 259.276 C 503.584 259.269 504.051 253.86 504.112 253.288 Z " fill="rgb(197,93,81)"/><path d=" M 470.907 264.876 L 470.899 264.977 L 470.868 265.128 L 470.907 264.876 L 470.907 264.876 L 470.907 264.876 Z " fill="rgb(158,67,61)"/><path d=" M 505.3 356.676 C 499.969 357.912 479.499 361.843 460.097 354.789 C 454.329 364.7 452.092 451.803 452.717 447.112 C 452.829 446.219 491.841 453.053 518.081 443.648 C 518.081 443.648 513.295 370.685 505.3 356.676 Z " fill="rgb(186,192,202)"/><path d=" M 504.024 341.263 C 505.1 330.851 507.6 320.851 508.407 317.037 C 510.387 316.869 512.436 316.443 514.901 315.559 C 512.985 306.016 510.688 299.02 503.688 297.572 L 503.477 297.549 C 502.667 297.4 501.808 297.303 500.868 297.303 C 492.764 297.312 484.688 296.785 476.581 296.947 C 470.879 297.061 464.759 295.695 459.313 297.891 C 455.836 299.296 450.165 305.593 448.899 306.645 C 448.417 312.365 454.529 316.172 458.86 318.589 C 458.86 318.589 462.584 332.316 462.5 333.977 C 462.18 340.371 463.399 338.536 461.451 344.581 C 457.008 358.365 456.352 374.587 456.229 374.513 C 479.499 380.165 500.141 379.481 510.595 374.513 C 510.467 374.292 509.371 358.215 505.005 349.656 C 505.005 349.656 504.037 343.867 504.024 341.263 Z " fill="rgb(203,193,2)"/><path d=" M 441.399 273.932 C 439.269 271.395 438.204 268.54 440.491 265.504 C 442.095 263.379 443.909 261.553 444.111 258.777 C 444.3 256.083 442.451 254.632 442.207 252.241 C 441.884 249.129 444.029 246.687 446.237 244.82 C 447.516 243.737 451.123 241.549 450.352 239.443 C 449.884 238.155 447.117 237.831 446.279 236.661 C 443.068 232.192 449.387 227.155 452.532 225.023 C 458.352 221.081 464.589 219.963 471.256 218.381 C 475.349 217.412 479.909 215.541 484.149 215.723 C 491.615 216.04 497.972 215.599 504.829 219.199 C 513.469 223.733 516.087 231.124 516.633 240.357 C 516.969 246.003 517.431 254.017 521.243 258.483 C 524.511 262.308 528.415 265.019 526.584 270.487 C 526.117 271.885 525.147 272.793 525.16 274.375 C 525.18 276.423 526.597 277.953 527.092 279.863 C 527.735 282.34 527.029 284.401 525.529 286.328 C 524.597 287.521 524.111 287.625 523.305 288.948 C 522.532 290.229 522.277 291.524 521.167 292.668 C 519.535 294.353 518.652 293.192 517.475 293.96 C 516.665 294.485 516.543 296.56 515.792 297.48 C 514.707 298.803 513.428 299.228 511.764 299.397 C 509.86 299.588 507.371 297.955 505.829 298.228 C 504.691 298.428 503.86 299.765 503.011 300.511 C 500.217 302.968 496.167 304.836 492.384 304.544 C 488.22 304.225 485.871 300.557 481.483 300.599 C 479.415 300.617 477.556 301.648 475.084 301.037 C 472.745 300.46 470.737 299.28 469.1 297.544 C 465.617 299.829 456.917 301.552 452.797 299.679 C 449.321 298.097 446.677 292.735 448.647 289.227 C 445.847 288.021 443.444 286.213 444.469 282.836 C 445.732 278.691 446.839 279.211 443.251 275.864 C 442.589 275.243 441.959 274.597 441.399 273.932 Z " fill="rgb(120,65,59)"/><path d=" M 105.299 194.645 C 105.589 189.384 106.003 184.011 106.76 178.775 C 107.161 175.748 107.654 173.193 109.425 170.828 C 110.432 169.593 111.32 168.352 112.431 167.357 C 113.289 166.7 115.418 164.237 116.366 164.055 C 117.899 163.905 120.895 167.003 122.143 167.775 C 123.949 169.047 126.354 170.117 127.914 171.611 C 125.434 174.055 122.395 175.999 120.025 178.567 C 117.779 181.023 117.682 182.776 117.508 185.933 C 117.347 188.857 115.692 191.229 113.367 192.977 C 111.906 193.953 110.803 194.831 109.901 196.307 C 109.394 196.981 108.836 198.593 108.369 198.567 L 105.299 194.645 L 105.299 194.645 Z " fill="rgb(250,191,184)"/><path d=" M 192.853 138.548 L 140.363 107.175 L 99.374 130.868 L 157.376 162.037 L 192.853 138.548 L 192.853 138.548 Z " fill="rgb(249,209,107)"/><path d=" M 157.376 162.037 L 99.374 130.868 L 98.988 131.092 L 104.664 167.96 L 163.327 199.023 L 157.477 161.971 L 157.376 162.037 L 157.376 162.037 Z " fill="rgb(230,166,7)"/><path d=" M 196.315 176.815 L 193.171 138.739 L 192.853 138.548 L 157.477 161.971 L 163.327 199.023 L 163.352 199.037 L 196.315 176.815 L 196.315 176.815 L 196.315 176.815 Z " fill="rgb(255,186,8)"/><path d=" M 108.658 193.305 C 111.807 191.484 116.675 184.011 112.627 180.856 C 114.803 179.687 119.237 175.825 118.69 172.979 C 118.078 169.193 111.37 175.979 110.358 177.331 C 106.814 182.061 106.16 187.537 105.494 193.249" fill="rgb(250,191,184)"/><path d=" M 108.658 193.305 C 109.698 192.633 110.539 191.708 111.279 190.735 C 112.014 189.755 112.634 188.688 113.115 187.572 C 113.589 186.46 113.925 185.268 113.89 184.089 C 113.869 182.913 113.359 181.791 112.423 181.117 L 112.016 180.825 L 112.47 180.564 C 113.799 179.797 115.025 178.768 116.096 177.644 C 117.135 176.519 118.141 175.201 118.331 173.776 C 118.403 173.101 118.204 172.261 117.724 172.255 C 117.164 172.18 116.403 172.56 115.769 172.945 C 114.464 173.764 113.269 174.82 112.141 175.915 C 111.587 176.467 111.016 177.039 110.565 177.635 C 110.088 178.272 109.675 178.919 109.273 179.597 C 108.48 180.951 107.866 182.409 107.385 183.913 C 106.443 186.931 105.949 190.095 105.494 193.249 C 105.781 190.079 106.019 186.872 106.913 183.771 C 107.797 180.692 109.229 177.656 111.634 175.404 C 112.779 174.269 113.975 173.183 115.362 172.289 C 116.073 171.885 116.792 171.384 117.852 171.467 C 118.418 171.525 118.875 172.064 118.984 172.515 C 119.115 172.959 119.158 173.415 119.102 173.863 C 118.825 175.64 117.713 176.96 116.621 178.143 C 115.479 179.305 114.234 180.348 112.784 181.148 L 112.831 180.595 C 113.903 181.412 114.463 182.792 114.431 184.08 C 114.425 185.38 114.023 186.611 113.497 187.745 C 112.96 188.881 112.246 189.917 111.448 190.871 C 110.642 191.811 109.737 192.696 108.658 193.305 Z " fill="rgb(244,103,124)"/><path d=" M 137.24 202.501 C 139.925 196.316 132.491 190.745 133.761 184.717 C 135.355 177.063 139.468 191.833 141.807 191.963 C 145.549 192.168 147.609 180.317 148.231 177.537 C 148.568 175.679 148.553 171.691 150.032 170.365 C 153.253 167.257 152.295 171.896 153.113 174.052 C 153.323 174.533 154.687 175.312 155.324 176.52 C 155.507 177.468 155.196 178.86 155.377 179.807 C 155.717 182.172 156.069 184.303 155.707 186.628 C 154.968 191.513 153.061 196.335 150.256 200.403 C 148.724 202.664 146.739 204.667 144.752 206.668 C 143.765 207.552 140.297 210.88 140.804 210.204 L 137.24 202.501 L 137.24 202.501 L 137.24 202.501 Z " fill="rgb(250,191,184)"/><path d=" M 148.659 188.939 C 149.239 187.349 149.665 185.727 150.076 184.099 C 150.476 182.469 150.881 180.84 151.197 179.192 C 151.575 177.556 151.872 175.904 152.144 174.252 C 152.285 173.427 152.403 172.596 152.465 171.765 C 152.505 171.351 152.532 170.933 152.515 170.52 C 152.505 170.313 152.484 170.108 152.433 169.911 C 152.387 169.721 152.296 169.501 152.076 169.461 C 152.304 169.455 152.463 169.68 152.547 169.869 C 152.635 170.071 152.684 170.283 152.725 170.495 C 152.804 170.92 152.837 171.348 152.857 171.776 C 152.873 172.631 152.823 173.481 152.755 174.329 C 152.605 176.023 152.299 177.693 151.979 179.357 C 151.593 181.008 151.196 182.656 150.665 184.268 C 150.128 185.873 149.54 187.483 148.659 188.939 Z " fill="rgb(244,103,124)"/><path d=" M 150.985 189.3 C 151.98 187.029 152.96 184.788 153.788 182.497 C 154.209 181.356 154.573 180.197 154.828 179.023 C 154.955 178.436 155.036 177.839 155.025 177.245 C 155.043 176.647 154.909 176.056 154.58 175.525 C 155.055 175.939 155.304 176.584 155.415 177.208 C 155.511 177.844 155.495 178.485 155.436 179.116 C 155.313 180.38 154.955 181.592 154.54 182.769 C 154.108 183.941 153.601 185.081 153.004 186.172 C 152.411 187.261 151.769 188.332 150.985 189.3 Z " fill="rgb(244,103,124)"/><path d=" M 151.208 193.769 C 151.827 192.936 152.305 192.045 152.755 191.136 C 153.188 190.22 153.613 189.3 153.995 188.36 C 154.389 187.425 154.743 186.475 155.099 185.523 C 155.441 184.564 155.755 183.6 155.991 182.589 C 156.087 183.633 155.915 184.68 155.689 185.695 C 155.465 186.715 155.121 187.7 154.732 188.667 C 154.323 189.624 153.865 190.564 153.287 191.439 C 152.716 192.308 152.067 193.164 151.208 193.769 Z " fill="rgb(244,103,124)"/><path d=" M 100.153 190.14 C 102.606 187.409 113.367 192.977 113.825 197.46 C 113.825 197.46 93.082 233.383 81.84 250.123 C 75.713 259.169 69.584 268.215 62.598 275.807 C 60.053 279.42 34.937 288.033 37.193 278.644 C 38.271 274.16 60.041 254.085 63.649 248.184 C 70.943 234.98 82.474 221.539 88.833 208.284 L 100.153 190.14 L 100.153 190.14 Z " fill="rgb(64,0,158)"/><path d=" M 51.63 254.013 C 48.949 251.751 46.221 248.9 44.185 246.191 C 38.96 239.236 35.777 229.215 35.994 220.479 C 36.161 213.816 40.037 206.717 44.961 202.415 C 50.727 197.375 59.179 197.441 66.387 197.46 C 73.972 197.481 83.158 195.351 90.369 197.945 C 92.677 198.776 97.353 201.655 98.273 204.04 C 99.151 206.311 97.189 210.752 96.128 212.756 C 94.58 215.683 92.233 216.764 89.82 218.776 C 88.032 220.264 87.325 222.664 86.044 224.545 C 84.43 226.917 82.444 228.988 80.977 231.473 C 78.104 236.336 74.911 241.071 71.708 245.737 C 69.555 248.877 67.294 251.185 64.571 253.743 C 63.524 254.731 63.225 254.844 62.708 256.223 C 62.611 256.477 62.068 260.479 62.062 260.469 C 59.578 257.657 55.644 257.193 52.777 254.945 C 52.398 254.648 52.015 254.336 51.63 254.013 Z " fill="rgb(50,49,49)"/><path d=" M 50.633 240.517 C 51.76 233.456 60.195 234.483 61.84 240.241 C 63.486 233.111 60.195 221.971 61.84 214.839 C 69.519 216.761 87.419 217.304 89.953 215.064 L 90.469 235.812 C 90.469 235.812 89.974 232.935 90.469 235.812 L 91.917 237.743 C 93.837 241.309 95.299 242.435 96.122 246.824 C 94.363 247.576 91.697 248.089 90.205 247.749 C 90.315 250.429 89.997 253.116 88.718 255.873 C 85.699 262.181 81.033 261.896 74.997 262.172 C 73.258 274.2 81.097 291.091 60.699 276.109 C 63.167 267.06 65.406 255.599 56.904 250.388 C 52.516 247.645 49.512 247.539 50.633 240.517 Z " fill="rgb(250,183,192)"/><path d=" M 81.102 213.625 C 80.92 219.415 84.901 234.973 73.865 232.803 C 73.142 234.792 74.408 241.305 71.333 241.124 C 70.971 238.591 71.333 230.631 66.99 231.536 C 62.648 232.44 64.458 239.857 65.363 242.572 C 66.99 246.913 66.629 249.265 65.363 253.788 C 65.001 255.236 64.82 257.588 63.734 259.035 C 61.744 261.387 61.744 259.759 60.116 257.768 C 57.041 254.512 52.336 252.703 49.804 249.265 C 46.729 245.104 45.823 238.772 46.185 233.707 C 46.909 222.491 52.518 208.741 65.543 208.199 C 67.352 208.199 69.161 208.199 70.971 208.199 C 71.152 208.56 71.152 208.741 71.152 209.103 L 81.102 213.625 L 81.102 213.625 L 81.102 213.625 Z " fill="rgb(50,49,49)"/><path d=" M 53.816 272.9 C 53.983 269.86 54.865 266.624 55.956 263.869 C 62.01 264.672 67.963 267.345 73.731 269.071 C 78.125 270.249 80.696 270.391 80.66 275.316 C 80.506 278.121 80.925 283.305 79.639 285.345 L 53.816 272.9 L 53.816 272.9 Z " fill="rgb(64,0,158)"/><path d=" M 39.032 534.715 C 38.68 541.125 37.539 547.837 38.358 553.993 C 41.02 554.732 44.066 555.521 46.794 555.057 L 48.796 554.944 C 52.797 553.857 55.386 553.786 58.901 552.557 C 63.216 551.048 78.046 548.148 78.17 542.947 C 78.232 540.368 53.198 536.911 47.918 534.632 L 39.032 534.715 L 39.032 534.715 Z " fill="rgb(166,104,41)"/><mask id="_mask_6RPeavLjZrEjybkfEXeFNq1IqL3BQfe0" x="-200%" y="-200%" width="400%" height="400%"><rect x="-200%" y="-200%" width="400%" height="400%" style="fill:white;"/><path d=" M 33.161 374.339 C 31.134 394.195 35.473 417.32 36.244 437.332 C 36.935 458.799 37.168 539.653 37.168 539.653 C 39.727 544.176 57.438 544.7 60.558 539.029 C 62.585 536.219 59.727 520.928 59.941 517.045 C 60.782 510.273 61.155 503.476 61.555 496.192 C 62.33 482.111 63.105 468.029 62.947 453.9 C 63.081 434.425 61.178 409.483 63.565 391.593 L 33.161 374.339 L 33.161 374.339 L 33.161 374.339 Z " fill="black" stroke="none"/></mask><path d=" M 33.161 374.339 C 31.134 394.195 35.473 417.32 36.244 437.332 C 36.935 458.799 37.168 539.653 37.168 539.653 C 39.727 544.176 57.438 544.7 60.558 539.029 C 62.585 536.219 59.727 520.928 59.941 517.045 C 60.782 510.273 61.155 503.476 61.555 496.192 C 62.33 482.111 63.105 468.029 62.947 453.9 C 63.081 434.425 61.178 409.483 63.565 391.593 L 33.161 374.339 L 33.161 374.339 L 33.161 374.339 Z " fill="rgb(244,231,212)" mask="url(#_mask_6RPeavLjZrEjybkfEXeFNq1IqL3BQfe0)" vector-effect="non-scaling-stroke" stroke-width="2" stroke="rgb(230,218,201)" stroke-linejoin="miter" stroke-linecap="butt" stroke-miterlimit="4"/><path d=" M 33.161 374.339 C 31.134 394.195 35.473 417.32 36.244 437.332 C 36.935 458.799 37.168 539.653 37.168 539.653 C 39.727 544.176 57.438 544.7 60.558 539.029 C 62.585 536.219 59.727 520.928 59.941 517.045 C 60.782 510.273 61.155 503.476 61.555 496.192 C 62.33 482.111 63.105 468.029 62.947 453.9 C 63.081 434.425 61.178 409.483 63.565 391.593 L 33.161 374.339 L 33.161 374.339 L 33.161 374.339 Z " fill="rgb(244,231,212)"/><path d=" M 57.169 400.092 C 56.456 400.091 55.743 400.108 55.031 400.091 L 52.885 399.881 L 50.762 399.541 L 48.666 399.087 L 44.51 398.123 L 42.443 397.685 L 40.375 397.34 L 41.006 396.44 L 41.361 396.968 C 41.487 397.141 41.581 397.328 41.729 397.488 C 42.02 397.811 42.281 398.156 42.589 398.467 C 42.911 398.765 43.219 399.08 43.549 399.369 L 44.582 400.2 C 45.305 400.715 46.044 401.2 46.814 401.635 C 47.198 401.848 47.599 402.024 47.992 402.223 C 48.39 402.396 48.799 402.529 49.201 402.687 L 49.226 402.696 L 49.247 402.701 L 50.242 402.979 L 51.3 403.108 C 52.025 403.14 52.766 403.131 53.524 403.08 C 54.284 403.039 55.058 402.973 55.857 402.984 C 56.252 402.979 56.667 403.04 57.069 403.068 C 57.27 403.076 57.479 403.157 57.682 403.2 L 58.292 403.359 L 58.882 403.513 L 58.553 404.036 C 58.289 404.457 57.985 404.844 57.636 405.177 C 57.286 405.509 56.908 405.8 56.509 406.051 C 55.709 406.548 54.844 406.92 53.943 407.132 C 53.046 407.351 52.122 407.439 51.208 407.389 C 50.752 407.36 50.298 407.301 49.857 407.189 C 49.416 407.072 48.994 406.903 48.595 406.699 C 50.295 407.301 52.141 407.129 53.777 406.564 C 54.593 406.267 55.383 405.9 56.072 405.4 C 56.417 405.151 56.734 404.873 57.018 404.571 C 57.299 404.265 57.527 403.928 57.721 403.579 L 57.982 404.256 L 57.471 404.161 C 57.297 404.139 57.14 404.075 56.955 404.081 C 56.591 404.083 56.242 404.045 55.87 404.073 C 55.134 404.12 54.38 404.183 53.61 404.256 C 52.84 404.332 52.047 404.368 51.238 404.359 C 50.83 404.319 50.419 404.295 50.01 404.237 L 48.786 403.909 L 48.831 403.923 C 48.378 403.756 47.911 403.607 47.469 403.42 C 47.041 403.209 46.599 403.02 46.182 402.793 C 45.773 402.552 45.356 402.323 44.954 402.072 L 43.792 401.256 L 42.692 400.352 C 42.338 400.033 42.005 399.691 41.661 399.361 C 41.484 399.201 41.344 398.999 41.184 398.819 L 40.72 398.263 C 40.563 398.081 40.449 397.853 40.313 397.649 L 39.923 397.024 L 39.209 395.876 L 40.553 396.124 C 41.983 396.385 43.395 396.687 44.772 397.087 L 48.87 398.303 C 50.232 398.7 51.598 399.06 52.971 399.413 L 55.047 399.827 L 57.169 400.092 L 57.169 400.092 Z " fill="rgb(193,182,167)"/><path d=" M 62.843 547.008 C 62.504 553.169 61.378 559.619 62.21 565.533 C 64.874 566.253 67.92 567.017 70.647 566.577 C 75.881 566.707 76.852 566.157 82.747 564.2 C 87.062 562.765 102.179 556.083 102.714 551.109 C 103.381 544.915 77.012 549.149 71.727 546.947 L 62.843 547.008 L 62.843 547.008 Z " fill="rgb(166,104,41)"/><path d=" M 30.568 375.695 C 31.888 379.784 30.875 384.147 34.142 387.943 C 39.97 394.291 49.549 395.621 57.116 398.448 C 55.872 414.049 59.588 430.727 59.476 446.792 C 59.684 464.08 57.966 481.261 58.195 498.149 C 58.414 508.205 59.041 517.883 59.282 527.538 C 59.402 532.367 59.159 536.773 58.894 541.581 C 58.586 547.189 57.706 549.149 63.414 550.668 C 66.835 551.66 72.291 550.756 75.799 550.144 C 81.661 548.86 82.068 548.48 82.398 542.471 C 82.883 533.659 81.443 524.741 81.951 515.528 C 84 478.273 86.797 441.464 91.883 405.181 C 93.093 397.213 94.325 388.844 94.381 380.811 L 30.568 375.695 L 30.568 375.695 Z " fill="rgb(230,218,201)"/><g><clipPath id="_clipPath_sFrzZGtc2W7OrWxTlZQ07KfezQgsm6AS"><path d=" M 30.568 375.695 C 31.888 379.784 30.875 384.147 34.142 387.943 C 39.97 394.291 49.549 395.621 57.116 398.448 C 55.872 414.049 59.588 430.727 59.476 446.792 C 59.684 464.08 57.966 481.261 58.195 498.149 C 58.414 508.205 59.041 517.883 59.282 527.538 C 59.402 532.367 59.159 536.773 58.894 541.581 C 58.586 547.189 57.706 549.149 63.414 550.668 C 66.835 551.66 72.291 550.755 75.799 550.144 C 81.661 548.86 82.068 548.48 82.398 542.471 C 82.883 533.659 81.443 524.741 81.951 515.528 C 84 478.273 86.797 441.464 91.883 405.181 C 93.093 397.213 94.325 388.844 94.381 380.811 L 30.568 375.695 L 30.568 375.695 Z " fill="rgb(255,255,255)"/></clipPath><g clip-path="url(#_clipPath_sFrzZGtc2W7OrWxTlZQ07KfezQgsm6AS)"><g><g><g><path d=" M 74.908 555.216 C 74.908 555.216 75.003 554.567 75.181 553.348 C 75.39 552.132 75.548 550.332 75.717 548.047 C 75.833 545.756 75.928 542.969 75.781 539.774 C 75.659 536.583 75.391 532.985 75.016 529.067 C 74.646 525.147 74.173 520.903 73.799 516.392 C 73.432 511.884 73.154 507.097 73.388 502.137 C 73.957 492.3 74.564 481.808 75.171 471.313 C 75.841 460.826 76.51 450.337 77.138 440.505 C 77.46 435.589 77.771 430.837 78.066 426.332 C 78.238 421.827 78.401 417.567 78.551 413.635 C 78.626 411.663 78.698 409.773 78.767 407.977 C 78.847 406.183 78.997 404.465 79.136 402.875 C 79.42 399.684 79.67 396.907 79.758 394.612 C 79.863 392.32 79.839 390.513 79.742 389.289 C 79.627 388.063 79.565 387.409 79.565 387.409 C 79.565 387.409 79.652 388.06 79.814 389.283 C 79.922 389.892 79.925 390.653 79.979 391.547 C 80.048 392.44 80.03 393.469 80.018 394.62 C 79.995 396.923 79.823 399.716 79.631 402.911 C 79.403 406.108 79.389 409.687 79.302 413.64 C 79.219 417.587 79.131 421.861 79.037 426.383 C 78.839 430.897 78.579 435.649 78.293 440.569 C 77.721 450.405 77.11 460.896 76.501 471.388 C 75.834 481.874 75.167 492.362 74.542 502.195 C 74.085 511.977 75.182 521.144 75.761 529.003 C 76.085 532.933 76.247 536.555 76.275 539.764 C 76.331 542.974 76.157 545.771 75.974 548.067 C 75.748 550.36 75.502 552.153 75.252 553.36 C 75.027 554.571 74.908 555.216 74.908 555.216 Z " fill="rgb(193,182,167)"/><path d=" M 79.383 403.509 C 79.383 403.509 79.674 403.4 80.182 403.209 C 80.44 403.127 80.752 403.011 81.068 402.837 C 81.391 402.672 81.758 402.523 82.119 402.259 C 82.3 402.139 82.49 402.013 82.686 401.884 C 82.863 401.732 83.046 401.575 83.233 401.412 C 83.615 401.103 83.933 400.681 84.275 400.276 C 84.429 400.057 84.585 399.835 84.743 399.609 C 84.878 399.367 85.014 399.121 85.151 398.873 C 85.413 398.372 85.658 397.845 85.842 397.289 C 86.059 396.747 86.228 396.18 86.384 395.617 C 86.52 395.049 86.685 394.493 86.794 393.941 C 87.034 392.841 87.22 391.795 87.388 390.893 C 87.705 389.088 87.984 387.871 87.984 387.871 C 87.984 387.871 88.154 389.104 88.151 390.963 C 88.153 391.892 88.108 392.979 87.951 394.144 C 87.871 394.724 87.777 395.329 87.632 395.933 C 87.481 396.537 87.317 397.151 87.091 397.755 C 86.874 398.355 86.587 398.939 86.277 399.496 C 86.112 399.771 85.947 400.043 85.769 400.301 C 85.568 400.545 85.37 400.788 85.175 401.025 C 84.757 401.472 84.323 401.891 83.847 402.191 C 83.613 402.343 83.383 402.491 83.163 402.633 C 82.922 402.739 82.69 402.84 82.467 402.936 C 82.037 403.155 81.586 403.233 81.209 403.325 C 80.832 403.435 80.507 403.455 80.236 403.468 C 79.693 403.493 79.383 403.509 79.383 403.509 Z " fill="rgb(193,182,167)"/><path d=" M 53.255 385.961 C 53.237 386.828 53.203 387.697 53.238 388.541 C 53.256 388.967 53.329 389.383 53.37 389.797 C 53.471 390.197 53.534 390.605 53.679 390.979 C 53.853 391.337 53.97 391.72 54.234 392.013 C 54.352 392.168 54.45 392.335 54.579 392.477 L 55.019 392.863 C 55.279 393.148 55.673 393.3 55.999 393.515 L 56.125 393.592 L 56.189 393.632 L 56.221 393.649 L 56.236 393.66 L 56.162 393.628 L 56.167 393.629 L 56.177 393.632 L 56.487 393.723 L 57.108 393.9 L 58.28 394.073 L 59.537 394.207 C 60.379 394.292 61.232 394.343 62.08 394.379 C 62.93 394.419 63.777 394.452 64.619 394.436 C 65.047 394.449 65.45 394.403 65.861 394.381 C 66.308 394.384 66.596 394.28 66.946 394.233 L 66.895 394.26 C 67.221 394.067 67.532 393.847 67.797 393.567 C 67.917 393.416 68.065 393.289 68.168 393.12 C 68.279 392.959 68.401 392.803 68.487 392.62 C 68.877 391.917 69.104 391.1 69.263 390.263 C 69.408 389.423 69.478 388.552 69.513 387.675 C 69.541 386.799 69.511 385.915 69.492 385.025 C 69.897 386.752 70.19 388.532 70.068 390.363 C 70.009 391.276 69.825 392.204 69.427 393.089 C 69.34 393.313 69.209 393.524 69.084 393.736 C 68.972 393.956 68.794 394.137 68.644 394.335 C 68.317 394.716 67.92 395.033 67.496 395.308 L 67.464 395.328 L 67.445 395.335 C 66.954 395.476 66.411 395.635 65.99 395.645 C 65.541 395.685 65.085 395.736 64.649 395.731 C 63.767 395.757 62.891 395.747 62.018 395.708 C 61.143 395.656 60.273 395.591 59.401 395.488 C 58.963 395.432 58.531 395.387 58.09 395.312 L 56.716 395.025 L 56.102 394.817 L 55.796 394.712 L 55.699 394.671 L 55.68 394.659 L 55.644 394.635 L 55.571 394.587 L 55.425 394.488 C 55.048 394.209 54.634 393.999 54.323 393.624 L 53.832 393.112 C 53.687 392.924 53.575 392.708 53.448 392.509 C 53.164 392.12 53.072 391.647 52.919 391.209 C 52.807 390.764 52.774 390.305 52.728 389.86 C 52.749 389.412 52.742 388.968 52.791 388.531 C 52.886 387.649 53.045 386.805 53.255 385.961 Z " fill="rgb(199,188,173)"/><path d=" M 44.584 396.469 C 44.584 396.469 44.437 396.241 44.18 395.843 C 44.046 395.649 43.937 395.376 43.801 395.065 C 43.649 394.753 43.547 394.391 43.432 393.991 C 42.959 392.388 42.916 390.152 43.165 388.005 C 43.429 385.852 43.94 383.769 44.373 382.228 C 44.803 380.685 45.156 379.657 45.156 379.657 C 45.156 379.657 45.248 380.748 45.128 382.357 C 45.026 383.968 44.735 386.079 44.489 388.161 C 44.423 388.681 44.359 389.201 44.318 389.712 C 44.279 390.224 44.216 390.725 44.2 391.211 C 44.137 392.184 44.136 393.088 44.184 393.865 C 44.223 394.249 44.227 394.616 44.287 394.92 C 44.343 395.228 44.352 395.513 44.424 395.741 C 44.525 396.204 44.584 396.469 44.584 396.469 Z " fill="rgb(193,182,167)"/><path d=" M 41.487 382.385 C 41.588 383.672 41.635 384.956 41.662 386.24 C 41.689 387.523 41.68 388.804 41.652 390.084 L 41.636 390.779 L 40.947 390.627 C 40.256 390.472 39.553 390.36 38.872 390.103 C 38.526 390.003 38.192 389.856 37.858 389.699 C 37.519 389.56 37.195 389.376 36.881 389.169 C 36.551 388.992 36.268 388.735 35.982 388.481 C 35.679 388.251 35.464 387.921 35.209 387.637 C 34.757 387.017 34.415 386.32 34.231 385.6 C 34.03 384.884 33.924 384.159 33.916 383.447 C 33.889 382.733 33.917 382.031 33.997 381.337 C 34.136 379.949 34.415 378.597 34.732 377.255 C 34.763 377.945 34.753 378.633 34.764 379.319 C 34.781 380.005 34.784 380.688 34.812 381.363 C 34.843 382.037 34.87 382.708 34.967 383.36 C 35.053 384.012 35.177 384.648 35.386 385.239 C 35.464 385.547 35.635 385.805 35.753 386.089 C 35.903 386.353 36.063 386.611 36.242 386.852 C 36.454 387.068 36.614 387.327 36.868 387.505 C 37.099 387.703 37.33 387.899 37.603 388.056 C 37.857 388.233 38.125 388.393 38.42 388.519 C 38.704 388.661 38.992 388.799 39.305 388.893 C 39.615 388.992 39.906 389.133 40.23 389.208 L 41.184 389.476 L 40.48 390.019 C 40.592 388.744 40.724 387.469 40.891 386.197 C 41.059 384.924 41.247 383.653 41.487 382.385 Z " fill="rgb(199,188,173)"/></g></g></g></g></g><path d=" M 36.284 308.993 C 36.973 317.781 34.707 322.289 35.627 331.148 C 36.201 337.785 34.208 339.877 32.466 345.948 C 31.266 350.725 33.88 354.393 33.17 358.756 C 31.259 367.901 21.76 370.021 32.623 377.224 C 39.842 382.465 48.656 384.272 57.519 385.2 C 70.568 386.799 85.93 388.965 98.381 384.367 C 94.953 378.452 98.816 376.463 97.703 371.116 C 97.082 365.357 93.484 362.516 93.822 356.369 C 93.862 347.123 93.925 337.437 93.99 327.753 C 94.005 318.945 92.269 307.84 94.624 299.163 C 97.003 290.043 106.002 279.969 111.581 272.349 C 123.797 254.965 140.248 237.372 146.084 216.555 C 147.777 211.363 148.859 208.78 144.373 205.009 C 143.511 203.641 139.889 201.24 138.019 201.137 C 133.784 201.344 136.615 201.06 133.639 203.979 C 131.132 206.924 130.326 213.045 128.237 216.895 C 125.609 222.033 121.625 226.219 118.086 230.868 C 111.425 241.072 106.588 252.256 98.548 261.944 C 95.524 265.741 90.904 272.973 86.525 275.813 C 82.17 278.217 76.606 277.032 71.267 280.26 C 65.718 270.267 42.153 265.263 37.193 278.644 C 37.193 278.644 34.999 292.609 36.284 308.993 Z " fill="rgb(85,2,210)"/><path d=" M 47.185 354.473 L 49.261 355.136 L 51.372 355.641 C 52.792 355.927 54.223 356.149 55.661 356.323 C 57.101 356.484 58.543 356.612 59.99 356.719 L 64.335 357.02 C 67.233 357.241 70.145 357.496 73.031 358.044 C 73.754 358.168 74.466 358.363 75.185 358.52 C 75.902 358.689 76.602 358.936 77.312 359.143 C 78.014 359.375 78.695 359.679 79.388 359.945 C 80.061 360.261 80.718 360.623 81.383 360.961 L 82.005 361.277 L 81.514 361.811 C 80.851 362.529 80.125 363.197 79.301 363.727 C 78.885 363.983 78.479 364.257 78.03 364.451 C 77.596 364.675 77.149 364.867 76.688 365.017 C 75.779 365.359 74.834 365.568 73.89 365.728 C 72.944 365.884 71.992 365.961 71.043 365.996 C 67.239 366.1 63.513 365.489 59.852 364.787 C 56.186 364.081 52.584 363.167 48.967 362.428 C 47.159 362.063 45.346 361.739 43.531 361.551 C 41.721 361.367 39.894 361.312 38.157 361.62 L 38.465 360.612 C 39.131 361.191 39.76 361.812 40.456 362.359 C 41.189 362.859 41.873 363.428 42.645 363.873 C 43.425 364.303 44.161 364.811 44.979 365.176 C 45.795 365.539 46.569 365.995 47.413 366.303 C 48.252 366.619 49.065 367.003 49.925 367.264 C 50.784 367.531 51.627 367.848 52.498 368.073 C 53.371 368.295 54.236 368.549 55.116 368.744 L 57.766 369.288 L 60.442 369.712 L 63.135 370.016 C 64.935 370.173 66.741 370.3 68.552 370.333 C 69.457 370.367 70.363 370.328 71.269 370.329 C 72.175 370.328 73.078 370.247 73.984 370.208 C 75.793 370.084 77.596 369.88 79.392 369.591 C 77.615 369.968 75.82 370.288 74.007 370.473 C 73.101 370.547 72.195 370.664 71.284 370.701 C 70.375 370.736 69.464 370.811 68.552 370.812 C 66.729 370.845 64.903 370.804 63.08 370.696 L 60.351 370.453 L 57.632 370.089 L 54.93 369.601 C 54.032 369.424 53.146 369.188 52.253 368.983 C 51.36 368.775 50.491 368.472 49.608 368.22 C 48.723 367.973 47.877 367.6 47.008 367.296 C 46.137 366.997 45.319 366.557 44.475 366.187 C 43.628 365.815 42.855 365.293 42.041 364.853 C 41.235 364.396 40.508 363.805 39.738 363.285 C 39.002 362.717 38.328 362.064 37.62 361.456 L 36.71 360.673 L 37.929 360.448 C 39.852 360.093 41.775 360.145 43.653 360.319 C 45.534 360.499 47.383 360.816 49.216 361.172 C 52.883 361.884 56.49 362.765 60.107 363.515 C 63.721 364.24 67.375 364.86 71.008 364.787 C 71.914 364.76 72.816 364.695 73.703 364.555 C 74.588 364.412 75.467 364.224 76.298 363.919 C 76.723 363.784 77.13 363.612 77.523 363.412 C 77.933 363.243 78.297 362.996 78.673 362.768 C 79.419 362.301 80.065 361.703 80.675 361.071 L 80.805 361.92 C 80.184 361.588 79.575 361.231 78.943 360.915 C 78.286 360.645 77.645 360.34 76.976 360.099 C 76.296 359.885 75.63 359.632 74.937 359.449 C 74.241 359.281 73.555 359.076 72.849 358.937 C 70.039 358.333 67.159 358.011 64.273 357.723 C 61.386 357.437 58.487 357.156 55.607 356.711 C 54.169 356.48 52.738 356.2 51.322 355.857 C 50.617 355.671 49.921 355.445 49.224 355.243 L 47.185 354.473 L 47.185 354.473 Z " fill="rgb(64,0,158)"/><path d=" M 34.714 368.311 C 34.714 368.311 35.336 368.656 36.423 369.259 C 36.968 369.557 37.661 369.848 38.432 370.216 C 39.204 370.579 40.131 370.893 41.096 371.315 C 42.085 371.685 43.165 372.068 44.311 372.449 C 45.475 372.788 46.682 373.196 47.96 373.529 C 48.596 373.703 49.243 373.88 49.898 374.06 C 50.558 374.216 51.227 374.375 51.901 374.535 C 53.24 374.889 54.63 375.121 56.005 375.415 C 57.389 375.651 58.77 375.927 60.143 376.096 C 61.514 376.271 62.861 376.475 64.175 376.56 C 65.486 376.7 66.755 376.736 67.961 376.797 C 69.166 376.843 70.303 376.779 71.357 376.76 C 72.395 376.627 73.37 376.607 74.21 376.46 C 75.044 376.287 75.795 376.191 76.383 376.016 C 77.562 375.635 78.235 375.417 78.235 375.417 C 78.235 375.417 77.591 375.724 76.465 376.261 C 75.886 376.503 75.147 376.68 74.311 376.945 C 73.469 377.192 72.491 377.317 71.428 377.507 C 70.36 377.596 69.197 377.736 67.966 377.769 C 66.736 377.787 65.432 377.845 64.094 377.731 C 62.752 377.677 61.371 377.549 59.973 377.372 C 58.573 377.213 57.167 376.952 55.756 376.723 C 54.36 376.411 52.953 376.159 51.595 375.785 C 50.227 375.46 48.901 375.059 47.625 374.649 C 46.336 374.287 45.138 373.776 43.985 373.361 C 42.847 372.9 41.779 372.441 40.803 372.003 C 39.841 371.525 38.954 371.111 38.204 370.655 C 37.458 370.197 36.793 369.828 36.282 369.476 C 35.284 368.735 34.714 368.311 34.714 368.311 Z " fill="rgb(64,0,158)"/><path d=" M 77.456 525.944 C 77.456 525.944 77.357 526.101 77.171 526.399 C 77.077 526.545 76.961 526.726 76.825 526.94 C 76.654 527.133 76.458 527.355 76.237 527.603 C 75.319 528.555 73.781 529.703 71.785 530.744 C 70.801 531.267 69.735 531.833 68.607 532.433 C 67.519 533.05 66.333 533.743 65.406 534.593 C 65.192 534.8 64.995 535.052 64.955 535.201 C 64.947 535.325 64.909 535.243 65.098 535.411 C 65.51 535.66 66.237 535.8 66.912 535.891 C 67.605 535.961 68.351 536.072 68.961 535.996 C 69.645 535.916 70.375 535.767 71.098 535.621 C 72.555 535.343 74.02 535.032 75.523 534.852 C 76.299 534.795 77 534.647 77.977 534.941 C 78.11 535 78.249 535.064 78.388 535.177 C 78.539 535.312 78.667 535.467 78.727 535.691 C 78.812 535.912 78.761 536.062 78.753 536.249 C 78.716 536.388 78.668 536.512 78.619 536.641 C 78.398 537.055 78.144 537.36 77.885 537.629 C 77.352 538.167 76.87 538.64 76.261 539.048 C 75.987 539.244 75.716 539.436 75.448 539.626 C 75.185 539.819 74.825 539.943 74.524 540.099 C 74.209 540.24 73.903 540.4 73.596 540.512 C 73.284 540.599 72.977 540.684 72.675 540.767 C 72.079 540.967 71.479 541.026 70.908 541.095 C 70.341 541.193 69.791 541.195 69.269 541.177 C 68.747 541.179 68.257 541.153 67.799 541.068 C 66.879 540.974 66.104 540.76 65.471 540.58 C 64.828 540.436 64.377 540.148 64.048 540.036 C 63.728 539.899 63.557 539.824 63.557 539.824 C 63.557 539.824 63.736 539.873 64.075 539.969 C 64.417 540.041 64.89 540.243 65.533 540.326 C 66.17 540.441 66.941 540.573 67.838 540.573 C 68.283 540.612 68.757 540.588 69.253 540.535 C 69.75 540.501 70.271 540.483 70.802 540.353 C 71.335 540.255 71.893 540.165 72.432 539.944 C 72.705 539.852 72.983 539.756 73.265 539.659 C 73.533 539.541 73.779 539.387 74.041 539.255 C 74.297 539.099 74.568 539.016 74.823 538.805 C 75.078 538.597 75.337 538.389 75.598 538.179 C 76.083 537.805 76.588 537.311 77.015 536.841 C 77.235 536.603 77.414 536.345 77.523 536.132 L 77.559 536.019 L 77.557 536.052 L 77.547 536.107 C 77.135 535.984 76.345 536.05 75.675 536.129 C 74.269 536.312 72.82 536.636 71.356 536.929 C 70.619 537.069 69.886 537.213 69.096 537.299 C 68.227 537.381 67.495 537.247 66.736 537.165 C 65.973 537.037 65.219 536.945 64.401 536.432 C 64.2 536.281 63.974 536.101 63.835 535.773 C 63.697 535.457 63.713 535.074 63.815 534.816 C 64.015 534.295 64.321 534.017 64.602 533.743 C 65.763 532.725 66.999 532.153 68.162 531.574 C 69.33 531.041 70.433 530.537 71.452 530.074 C 73.47 529.156 75.088 528.265 76.057 527.419 C 76.297 527.204 76.51 527.013 76.697 526.848 C 76.86 526.653 77 526.489 77.113 526.356 C 77.336 526.088 77.456 525.944 77.456 525.944 Z " fill="rgb(193,182,167)"/><path d=" M 63.107 543.724 C 64.341 544.02 65.54 544.105 66.743 544.12 C 67.944 544.116 69.141 544.048 70.317 543.861 C 71.495 543.696 72.654 543.421 73.768 543.028 C 74.876 542.616 75.938 542.084 76.852 541.197 C 76.403 542.409 75.337 543.35 74.203 543.973 C 73.057 544.615 71.787 544.977 70.512 545.18 C 69.231 545.356 67.927 545.368 66.653 545.152 C 65.39 544.941 64.109 544.526 63.107 543.724 Z " fill="rgb(195,184,168)"/><path d=" M 55.667 516.932 C 55.053 517.311 54.482 517.76 53.832 518.083 C 53.167 518.372 52.51 518.735 51.804 518.919 C 51.111 519.164 50.402 519.338 49.684 519.48 C 48.97 519.659 48.248 519.709 47.529 519.829 C 46.097 520.02 44.663 520.161 43.279 520.453 C 42.604 520.588 41.832 520.723 41.215 520.907 C 40.895 521.011 40.575 521.113 40.305 521.252 C 40.027 521.369 39.808 521.584 39.81 521.637 C 39.808 521.628 39.808 521.755 40.031 521.957 C 40.231 522.143 40.507 522.312 40.792 522.467 C 41.374 522.769 42.024 523.001 42.683 523.196 C 44.002 523.571 45.404 523.796 46.729 523.721 C 46.893 523.708 47.058 523.7 47.216 523.672 L 47.39 523.644 L 47.649 523.567 C 48.003 523.467 48.325 523.356 48.649 523.243 L 50.695 522.537 C 51.396 522.313 52.101 522.089 52.857 521.949 C 53.594 521.785 54.414 521.712 55.316 521.923 L 55.346 521.931 L 55.375 521.945 C 55.801 522.172 56.269 522.387 56.618 522.928 C 56.997 523.45 56.929 524.262 56.656 524.703 C 56.125 525.619 55.396 526.14 54.665 526.624 C 53.923 527.089 53.151 527.473 52.332 527.774 C 51.918 527.935 51.493 528.036 51.105 528.152 C 50.705 528.267 50.315 528.396 49.86 528.435 C 49.423 528.481 48.983 528.581 48.553 528.579 L 47.267 528.572 C 46.418 528.495 45.581 528.371 44.761 528.2 C 43.12 527.867 41.507 527.512 39.849 527.293 C 40.68 527.325 41.523 527.323 42.351 527.432 L 44.835 527.712 C 45.659 527.819 46.48 527.84 47.292 527.877 L 48.502 527.817 C 48.905 527.8 49.279 527.686 49.667 527.629 C 50.047 527.587 50.443 527.433 50.836 527.297 C 51.239 527.153 51.62 527.041 51.976 526.88 C 52.704 526.567 53.411 526.167 54.055 525.711 C 54.684 525.259 55.318 524.725 55.601 524.174 C 55.732 523.888 55.709 523.749 55.597 523.588 C 55.501 523.409 55.183 523.238 54.876 523.091 L 54.935 523.113 C 54.419 523.035 53.777 523.048 53.109 523.211 C 52.448 523.34 51.776 523.557 51.106 523.777 L 49.069 524.5 C 48.713 524.626 48.356 524.756 48.013 524.847 L 47.754 524.923 C 47.533 524.98 47.522 524.961 47.396 524.984 C 47.197 525.016 47.002 525.026 46.807 525.038 C 45.248 525.108 43.764 524.845 42.318 524.423 C 41.595 524.208 40.89 523.924 40.201 523.545 C 39.858 523.348 39.518 523.135 39.194 522.82 C 39.034 522.653 38.873 522.469 38.752 522.2 C 38.628 521.936 38.585 521.552 38.713 521.228 C 38.992 520.601 39.448 520.405 39.807 520.224 C 40.187 520.044 40.558 519.937 40.931 519.844 C 41.71 519.661 42.369 519.589 43.114 519.481 C 44.569 519.256 46.017 519.193 47.453 519.08 C 48.161 519.008 48.883 518.969 49.585 518.868 C 50.294 518.791 50.997 518.683 51.685 518.503 C 52.396 518.383 53.039 518.095 53.718 517.868 C 54.385 517.607 55.016 517.241 55.667 516.932 Z " fill="rgb(193,182,167)"/><path d=" M 39.208 530.429 C 39.208 530.429 39.449 530.643 39.847 531.033 C 40.028 531.256 40.315 531.433 40.626 531.621 C 40.914 531.838 41.298 531.992 41.718 532.157 C 42.109 532.368 42.622 532.399 43.101 532.548 C 43.62 532.589 44.145 532.699 44.718 532.683 C 45.283 532.712 45.872 532.671 46.475 532.633 C 47.075 532.607 47.69 532.515 48.303 532.441 C 49.534 532.285 50.768 532.067 51.94 531.885 C 53.109 531.699 54.215 531.538 55.174 531.457 C 56.131 531.361 56.945 531.381 57.506 531.395 C 58.071 531.44 58.385 531.485 58.385 531.485 C 58.385 531.485 58.066 531.559 57.525 531.653 C 57.253 531.696 56.927 531.793 56.554 531.879 C 56.182 531.961 55.765 532.104 55.307 532.211 C 53.485 532.699 51.042 533.409 48.476 533.761 C 47.83 533.824 47.186 533.904 46.54 533.917 C 45.896 533.952 45.258 533.92 44.636 533.85 C 44.019 533.832 43.422 533.629 42.868 533.512 C 42.328 533.288 41.796 533.155 41.381 532.843 C 41.169 532.705 40.966 532.576 40.773 532.45 C 40.591 532.312 40.445 532.131 40.297 531.988 C 40.004 531.695 39.768 531.448 39.645 531.195 C 39.357 530.715 39.208 530.429 39.208 530.429 Z " fill="rgb(193,182,167)"/></g></g></g></g></g></g></g></svg>